{"title":"Five Easy Pieces(1970)MP-4[DaScubaDude]","uid":12691521,"size":973162918,"categoryP":"video","categoryS":"movies","magnet":"?xt=urn:btih:6b8ca1c8fab8aec4662d0f9d5f1a18fca5287932&amp;dn=Five+Easy+Pieces%281970%29MP-4%5BDaScubaDude%5D&amp;tr=udp%3A%2F%2Ftracker.leechers-paradise.org%3A6969&amp;tr=udp%3A%2F%2Fzer0day.ch%3A1337&amp;tr=udp%3A%2F%2Fopen.demonii.com%3A1337&amp;tr=udp%3A%2F%2Ftracker.coppersurfer.tk%3A6969&amp;tr=udp%3A%2F%2Fexodus.desync.com%3A6969","seeders":0,"leechers":0,"uploader":"dascuba","files":1,"time":1446677660,"description":"Five Easy Pieces (1970)\r\nR  |  98 min  |  Drama  |  12 September 1970 (USA)\r\n7.5 Your rating:   -/10   Ratings: 7.5/10 from 23,999 users   \r\nReviews: 177 user | 87 critic\r\nA drop-out from upper-class America picks up work along the way on oil-rigs when his life isn't spent in a squalid succession of bars, motels, and other points of interest.\r\n\r\nDirector: Bob Rafelson\r\nWriters: Carole Eastman (screenplay) (as Adrien Joyce) , Bob Rafelson (story), 1 more credit »\r\nStars: Jack Nicholson, Karen Black, Billy Green Bush\r\n\r\nGeneral\r\nComplete name                            : C:Five Easy PiecesFIVE_EASY_PIECES_Title4.mp4\r\nFormat                                   : MPEG-4\r\nFormat profile                           : Base Media\r\nCodec ID                                 : isom\r\nFile size                                : 928 MiB\r\nDuration                                 : 1h 38mn\r\nOverall bit rate                         : 1 319 Kbps\r\nMovie name                               : FIVE_EASY_PIECES_Title4\r\nWriting application                      : Lavf54.6.100\r\n\r\nVideo\r\nID                                       : 1\r\nFormat                                   : AVC\r\nFormat/Info                              : Advanced Video Codec\r\nFormat profile                           :   \r\nFormat settings, CABAC                   : No\r\nFormat settings, ReFrames                : 6 frames\r\nFormat settings, GOP                     : N=1\r\nCodec ID                                 : avc1\r\nCodec ID/Info                            : Advanced Video Coding\r\nDuration                                 : 1h 38mn\r\nBit rate                                 : 1 204 Kbps\r\nWidth                                    : 720 pixels\r\nHeight                                   : 404 pixels\r\nDisplay aspect ratio                     : 16:9\r\nFrame rate mode                          : Constant\r\nFrame rate                               : 29.970 fps\r\nColor space                              : YUV\r\nChroma subsampling                       : 4:2:0\r\nBit depth                                : 8 bits\r\nScan type                                : Progressive\r\nBits/(Pixel*Frame)                       : 0.138\r\nStream size                              : 847 MiB (91%)\r\n\r\nAudio\r\nID                                       : 2\r\nFormat                                   : AAC\r\nFormat/Info                              : Advanced Audio Codec\r\nFormat profile                           : LC\r\nCodec ID                                 : 40\r\nDuration                                 : 1h 38mn\r\nBit rate mode                            : Constant\r\nBit rate                                 : 109 Kbps\r\nChannel(s)                               : 2 channels\r\nChannel(s)_Original                      : 1 channel\r\nChannel positions                        : Front: C\r\nSampling rate                            : 44.1 KHz\r\nCompression mode                         : Lossy\r\nStream size                              : 76.5 MiB (8%)","torrent":{"xt":"urn:btih:6b8ca1c8fab8aec4662d0f9d5f1a18fca5287932","amp;dn":"Five+Easy+Pieces%281970%29MP-4%5BDaScubaDude%5D","amp;tr":["udp%3A%2F%2Ftracker.leechers-paradise.org%3A6969","udp%3A%2F%2Fzer0day.ch%3A1337","udp%3A%2F%2Fopen.demonii.com%3A1337","udp%3A%2F%2Ftracker.coppersurfer.tk%3A6969","udp%3A%2F%2Fexodus.desync.com%3A6969"],"infoHash":"6b8ca1c8fab8aec4662d0f9d5f1a18fca5287932","infoHashBuffer":{"type":"Buffer","data":[107,140,161,200,250,184,174,196,102,45,15,157,95,26,24,252,165,40,121,50]},"announce":[],"urlList":[]}}